<?xml version="1.0" encoding="UTF-8" standalone="no"?>
<!DOCTYPE svg PUBLIC "-//W3C//DTD SVG 1.1//EN" "http://www.w3.org/Graphics/SVG/1.1/DTD/svg11.dtd">
<svg version="1.1" xmlns:dc="http://purl.org/dc/elements/1.1/" xmlns:xl="http://www.w3.org/1999/xlink" xmlns="http://www.w3.org/2000/svg" viewBox="448.21875 560.0156 511 511" width="511" height="511">
  <defs>
    <radialGradient cx="0" cy="0" r="1" id="Gradient" gradientUnits="userSpaceOnUse">
      <stop offset="0" stop-color="#97c2ff"/>
      <stop offset="1" stop-color="#293a54"/>
    </radialGradient>
    <radialGradient id="Obj_Gradient" xl:href="#Gradient" gradientTransform="translate(703.71875 815.5156) scale(361.33157)"/>
    <linearGradient x1="0" x2="1" id="Gradient_2" gradientUnits="userSpaceOnUse">
      <stop offset="0" stop-color="#fffc00"/>
      <stop offset="1" stop-color="#ff9300"/>
    </linearGradient>
    <linearGradient id="Obj_Gradient_2" xl:href="#Gradient_2" gradientTransform="translate(703.71875 685.7812) rotate(90) scale(259.4689)"/>
  </defs>
  <g id="Canvas_1" stroke-dasharray="none" stroke="none" stroke-opacity="1" fill="none" fill-opacity="1">
    <title>Canvas 1</title>
    <g id="Canvas_1_Layer_1">
      <title>Layer 1</title>
      <g id="Group_10">
        <g id="Graphic_5">
          <path d="M 548.21875 560.0156 L 859.2187 560.0156 C 914.4472 560.0156 959.2187 604.78715 959.2187 660.0156 L 959.2187 971.0156 C 959.2187 1026.2441 914.4472 1071.0156 859.2187 1071.0156 L 548.21875 1071.0156 C 492.9903 1071.0156 448.21875 1026.2441 448.21875 971.0156 L 448.21875 660.0156 C 448.21875 604.78715 492.9903 560.0156 548.21875 560.0156 Z" fill="url(#Obj_Gradient)"/>
        </g>
        <g id="Graphic_4">
          <path d="M 903.6915 944.8709 C 903.7308 944.9467 903.7274 945.0376 903.6826 945.1103 C 903.6378 945.183 903.5581 945.2268 903.4727 945.2258 L 801.2803 945.2258 C 801.0689 945.2256 800.8737 945.117 800.765 944.939 C 796.4779 937.9589 790.1589 927.8615 781.8081 914.6468 C 777.4756 907.7866 771.9748 899.1442 765.30585 888.7195 C 759.1667 879.1244 755.2587 873.1797 752.3714 868.0856 C 749.57645 863.1665 744.0498 858.6703 737.8669 858.1794 C 734.9699 857.9461 731.81364 857.8375 728.39816 857.8537 C 727.9186 857.857 716.9673 857.925 695.5443 858.0579 C 695.2685 858.0572 695.0204 857.8879 694.9173 857.6301 L 660.4983 771.0893 C 660.4252 770.9042 660.2579 770.7732 660.06 770.7461 C 659.8621 770.719 659.66395 770.7999 659.5407 770.9581 C 659.019 771.6418 658.4714 772.7031 657.8978 774.1419 C 655.40585 780.4025 653.016 786.5271 650.7282 792.5155 C 648.3205 798.8053 646.6727 803.065 645.7848 805.2944 C 642.1976 814.3063 639.0867 822.7348 635.5529 831.3481 C 634.12386 834.8284 632.3918 839.2662 630.3568 844.6617 C 629.3506 847.3253 628.8548 850.5772 630.02624 853.2457 C 631.45044 856.483 634.6537 858.4127 638.0222 858.9182 C 638.5212 858.9928 640.2824 859.0268 643.3058 859.0203 C 658.1084 859.0041 673.63206 858.996 689.8767 858.996 C 691.9765 858.996 693.3764 858.9701 694.0764 858.9182 C 694.3923 858.8988 694.73744 858.6558 695.03395 858.7238 C 695.1117 858.74 695.1895 858.847 695.2673 859.0446 C 696.8616 863.1422 698.4316 867.3905 699.8169 870.7493 C 708.1677 890.9798 716.30784 911.0952 724.23735 931.0956 C 725.38935 933.9974 726.9983 937.1229 727.9267 939.806 C 728.497 941.4522 729.1759 943.0887 729.9633 944.7154 C 730.0185 944.8317 730.01 944.9682 729.9409 945.0767 C 729.8718 945.1853 729.7518 945.2508 729.6231 945.2501 L 654.3203 945.2501 C 653.99554 945.2503 653.7048 945.0488 653.5912 944.7446 C 650.8173 937.3692 647.8668 929.3781 644.73974 920.7713 C 643.5391 917.4514 640.7442 915.4245 637.3368 914.3989 C 636.3776 914.1105 634.6926 913.9711 632.2816 913.9808 C 624.5336 914.01 618.65856 914.0149 614.65654 913.9954 C 611.3075 913.9808 609.03265 914.1218 606.15995 915.6092 C 603.8365 916.8147 602.24704 918.5872 601.39155 920.9269 C 598.8089 928.0041 596.0269 935.3066 593.04564 942.8343 C 592.8674 943.2815 592.6762 943.949 592.4721 944.8369 C 592.4202 945.061 592.2209 945.2201 591.99085 945.2209 L 503.9869 945.2209 C 503.89754 945.2212 503.81393 945.1768 503.7641 945.1025 C 503.7143 945.0283 503.7049 944.9341 503.739 944.8515 C 503.9918 944.2196 504.6577 943.2183 504.8813 942.6836 C 509.4018 931.9365 516.552 916.0467 520.17323 907.7251 C 530.0503 885.0124 538.973 864.6977 546.9414 846.7809 C 549.678 840.6272 553.5569 832.4028 556.66776 825.0631 C 558.5829 820.5426 560.8966 816.0804 563.1569 810.9815 C 576.16424 781.6177 593.5609 742.44975 608.9986 708.3273 C 610.3353 705.3622 612.1387 699.70915 614.5739 695.8108 C 617.5649 691.0084 621.7046 687.9024 626.9931 686.4928 C 628.86614 685.9937 631.8409 685.7572 635.9175 685.7831 C 647.9527 685.8641 665.3315 685.8722 688.0539 685.8074 C 690.1181 685.8009 692.4675 686.2578 695.102 687.1781 C 701.0094 689.2391 705.1411 693.2492 707.4969 699.2085 C 711.0647 708.23005 712.2556 711.4527 715.5074 718.8702 C 717.1601 722.647 718.65235 726.7495 720.339 730.7499 C 722.4 735.6431 724.0899 739.73745 725.4088 743.033 C 726.0666 744.6727 727.0096 747.0253 728.23775 750.09085 C 733.3545 762.8584 736.02306 769.4853 736.2434 769.9713 C 736.4962 770.5287 736.7311 770.9564 736.9482 771.2546 C 737.0142 771.3442 737.1188 771.3972 737.2301 771.3972 C 737.34145 771.3972 737.4461 771.3442 737.5121 771.2546 C 738.5101 769.8676 739.6006 768.2377 740.78335 766.36465 C 744.2993 760.7942 748.5103 754.1787 753.41645 746.5182 C 759.5766 736.9004 763.7877 730.2849 766.0495 726.67175 C 774.841 712.63065 783.2777 699.249 791.3595 686.5268 C 791.6264 686.1088 792.0864 685.8559 792.5795 685.856 L 882.518 685.856 C 882.6591 685.8573 882.7877 685.93675 882.852 686.0623 C 882.9163 686.1878 882.9056 686.3387 882.8243 686.4539 C 881.6901 688.0255 879.5692 690.7832 876.4615 694.7269 C 873.0882 699.0011 869.2028 703.9769 864.8055 709.65425 C 862.845 712.1851 861.3673 714.0565 860.3725 715.2684 C 857.5629 718.6855 855.7693 721.5388 853.1445 724.6886 C 850.0045 728.4654 845.761 734.4684 842.8494 738.148 C 839.7029 742.1338 836.1238 746.745 832.112 751.9817 C 829.5067 755.3842 827.6628 757.7498 826.5805 759.0784 C 823.7321 762.583 821.4038 765.8251 819.231 768.5812 C 812.1927 777.5023 805.305 786.4266 798.568 795.3542 C 795.948 798.8296 792.6136 801.4301 793.6683 805.9895 C 793.8887 806.9325 794.5708 808.0375 795.7147 809.3045 C 796.541 810.2184 797.4565 811.3218 798.461 812.6147 C 814.973 833.8611 837.2012 861.3632 849.0566 876.2322 C 850.6963 878.29 852.9614 881.1367 855.852 884.7726 C 871.9961 905.0905 882.3787 918.0752 886.9997 923.7267 C 894.5047 932.907 899.9957 939.8417 903.4727 944.5307 C 903.5667 944.6571 903.6396 944.7705 903.6915 944.8709 Z" fill="url(#Obj_Gradient_2)"/>
          <path d="M 903.6915 944.8709 C 903.7308 944.9467 903.7274 945.0376 903.6826 945.1103 C 903.6378 945.183 903.5581 945.2268 903.4727 945.2258 L 801.2803 945.2258 C 801.0689 945.2256 800.8737 945.117 800.765 944.939 C 796.4779 937.9589 790.1589 927.8615 781.8081 914.6468 C 777.4756 907.7866 771.9748 899.1442 765.30585 888.7195 C 759.1667 879.1244 755.2587 873.1797 752.3714 868.0856 C 749.57645 863.1665 744.0498 858.6703 737.8669 858.1794 C 734.9699 857.9461 731.81364 857.8375 728.39816 857.8537 C 727.9186 857.857 716.9673 857.925 695.5443 858.0579 C 695.2685 858.0572 695.0204 857.8879 694.9173 857.6301 L 660.4983 771.0893 C 660.4252 770.9042 660.2579 770.7732 660.06 770.7461 C 659.8621 770.719 659.66395 770.7999 659.5407 770.9581 C 659.019 771.6418 658.4714 772.7031 657.8978 774.1419 C 655.40585 780.4025 653.016 786.5271 650.7282 792.5155 C 648.3205 798.8053 646.6727 803.065 645.7848 805.2944 C 642.1976 814.3063 639.0867 822.7348 635.5529 831.3481 C 634.12386 834.8284 632.3918 839.2662 630.3568 844.6617 C 629.3506 847.3253 628.8548 850.5772 630.02624 853.2457 C 631.45044 856.483 634.6537 858.4127 638.0222 858.9182 C 638.5212 858.9928 640.2824 859.0268 643.3058 859.0203 C 658.1084 859.0041 673.63206 858.996 689.8767 858.996 C 691.9765 858.996 693.3764 858.9701 694.0764 858.9182 C 694.3923 858.8988 694.73744 858.6558 695.03395 858.7238 C 695.1117 858.74 695.1895 858.847 695.2673 859.0446 C 696.8616 863.1422 698.4316 867.3905 699.8169 870.7493 C 708.1677 890.9798 716.30784 911.0952 724.23735 931.0956 C 725.38935 933.9974 726.9983 937.1229 727.9267 939.806 C 728.497 941.4522 729.1759 943.0887 729.9633 944.7154 C 730.0185 944.8317 730.01 944.9682 729.9409 945.0767 C 729.8718 945.1853 729.7518 945.2508 729.6231 945.2501 L 654.3203 945.2501 C 653.99554 945.2503 653.7048 945.0488 653.5912 944.7446 C 650.8173 937.3692 647.8668 929.3781 644.73974 920.7713 C 643.5391 917.4514 640.7442 915.4245 637.3368 914.3989 C 636.3776 914.1105 634.6926 913.9711 632.2816 913.9808 C 624.5336 914.01 618.65856 914.0149 614.65654 913.9954 C 611.3075 913.9808 609.03265 914.1218 606.15995 915.6092 C 603.8365 916.8147 602.24704 918.5872 601.39155 920.9269 C 598.8089 928.0041 596.0269 935.3066 593.04564 942.8343 C 592.8674 943.2815 592.6762 943.949 592.4721 944.8369 C 592.4202 945.061 592.2209 945.2201 591.99085 945.2209 L 503.9869 945.2209 C 503.89754 945.2212 503.81393 945.1768 503.7641 945.1025 C 503.7143 945.0283 503.7049 944.9341 503.739 944.8515 C 503.9918 944.2196 504.6577 943.2183 504.8813 942.6836 C 509.4018 931.9365 516.552 916.0467 520.17323 907.7251 C 530.0503 885.0124 538.973 864.6977 546.9414 846.7809 C 549.678 840.6272 553.5569 832.4028 556.66776 825.0631 C 558.5829 820.5426 560.8966 816.0804 563.1569 810.9815 C 576.16424 781.6177 593.5609 742.44975 608.9986 708.3273 C 610.3353 705.3622 612.1387 699.70915 614.5739 695.8108 C 617.5649 691.0084 621.7046 687.9024 626.9931 686.4928 C 628.86614 685.9937 631.8409 685.7572 635.9175 685.7831 C 647.9527 685.8641 665.3315 685.8722 688.0539 685.8074 C 690.1181 685.8009 692.4675 686.2578 695.102 687.1781 C 701.0094 689.2391 705.1411 693.2492 707.4969 699.2085 C 711.0647 708.23005 712.2556 711.4527 715.5074 718.8702 C 717.1601 722.647 718.65235 726.7495 720.339 730.7499 C 722.4 735.6431 724.0899 739.73745 725.4088 743.033 C 726.0666 744.6727 727.0096 747.0253 728.23775 750.09085 C 733.3545 762.8584 736.02306 769.4853 736.2434 769.9713 C 736.4962 770.5287 736.7311 770.9564 736.9482 771.2546 C 737.0142 771.3442 737.1188 771.3972 737.2301 771.3972 C 737.34145 771.3972 737.4461 771.3442 737.5121 771.2546 C 738.5101 769.8676 739.6006 768.2377 740.78335 766.36465 C 744.2993 760.7942 748.5103 754.1787 753.41645 746.5182 C 759.5766 736.9004 763.7877 730.2849 766.0495 726.67175 C 774.841 712.63065 783.2777 699.249 791.3595 686.5268 C 791.6264 686.1088 792.0864 685.8559 792.5795 685.856 L 882.518 685.856 C 882.6591 685.8573 882.7877 685.93675 882.852 686.0623 C 882.9163 686.1878 882.9056 686.3387 882.8243 686.4539 C 881.6901 688.0255 879.5692 690.7832 876.4615 694.7269 C 873.0882 699.0011 869.2028 703.9769 864.8055 709.65425 C 862.845 712.1851 861.3673 714.0565 860.3725 715.2684 C 857.5629 718.6855 855.7693 721.5388 853.1445 724.6886 C 850.0045 728.4654 845.761 734.4684 842.8494 738.148 C 839.7029 742.1338 836.1238 746.745 832.112 751.9817 C 829.5067 755.3842 827.6628 757.7498 826.5805 759.0784 C 823.7321 762.583 821.4038 765.8251 819.231 768.5812 C 812.1927 777.5023 805.305 786.4266 798.568 795.3542 C 795.948 798.8296 792.6136 801.4301 793.6683 805.9895 C 793.8887 806.9325 794.5708 808.0375 795.7147 809.3045 C 796.541 810.2184 797.4565 811.3218 798.461 812.6147 C 814.973 833.8611 837.2012 861.3632 849.0566 876.2322 C 850.6963 878.29 852.9614 881.1367 855.852 884.7726 C 871.9961 905.0905 882.3787 918.0752 886.9997 923.7267 C 894.5047 932.907 899.9957 939.8417 903.4727 944.5307 C 903.5667 944.6571 903.6396 944.7705 903.6915 944.8709 Z" stroke="black" stroke-linecap="butt" stroke-linejoin="round" stroke-width="1"/>
        </g>
      </g>
    </g>
  </g>
</svg>
